<svg id="us-icon" viewBox="0 0 27 20" fill="none" xmlns="http://www.w3.org/2000/svg"><path fill-rule="evenodd" clip-rule="evenodd" d="M25.673 17.3739V18.5306H1.3252V17.3739H25.673ZM25.673 15.0607V16.2173H1.3252V15.0607H25.673ZM25.673 12.7474V13.904H1.3252V12.7474H25.673ZM25.673 10.4342V11.5908H1.3252V10.4342H25.673ZM25.673 8.12091V9.27754H1.3252V8.12091H25.673ZM25.673 5.80766V6.96428H1.3252V5.80766H25.673ZM25.673 3.49441V4.65103H1.3252V3.49441H25.673ZM25.673 1.18115V2.33778H1.3252V1.18115H25.673Z" fill="#E0142F"></path><path d="M11.76 1.18115H1.3252V9.27754L11.76 9.2779V1.18115Z" fill="#222DA5"></path><path d="M10.0206 6.9644C10.3408 6.9644 10.6003 7.22332 10.6003 7.54271C10.6003 7.8621 10.3408 8.12102 10.0206 8.12102C9.70044 8.12102 9.4409 7.8621 9.4409 7.54271C9.4409 7.22332 9.70044 6.9644 10.0206 6.9644ZM7.70177 6.9644C8.02193 6.9644 8.28148 7.22332 8.28148 7.54271C8.28148 7.8621 8.02193 8.12102 7.70177 8.12102C7.3816 8.12102 7.12206 7.8621 7.12206 7.54271C7.12206 7.22332 7.3816 6.9644 7.70177 6.9644ZM5.38293 6.9644C5.70309 6.9644 5.96264 7.22332 5.96264 7.54271C5.96264 7.8621 5.70309 8.12102 5.38293 8.12102C5.06276 8.12102 4.80322 7.8621 4.80322 7.54271C4.80322 7.22332 5.06276 6.9644 5.38293 6.9644ZM3.06409 6.9644C3.38425 6.9644 3.6438 7.22332 3.6438 7.54271C3.6438 7.8621 3.38425 8.12102 3.06409 8.12102C2.74392 8.12102 2.48438 7.8621 2.48438 7.54271C2.48438 7.22332 2.74392 6.9644 3.06409 6.9644ZM4.22351 5.80777C4.54367 5.80777 4.80322 6.06669 4.80322 6.38608C4.80322 6.70548 4.54367 6.9644 4.22351 6.9644C3.90334 6.9644 3.6438 6.70548 3.6438 6.38608C3.6438 6.06669 3.90334 5.80777 4.22351 5.80777ZM6.54235 5.80777C6.86251 5.80777 7.12206 6.06669 7.12206 6.38608C7.12206 6.70548 6.86251 6.9644 6.54235 6.9644C6.22218 6.9644 5.96264 6.70548 5.96264 6.38608C5.96264 6.06669 6.22218 5.80777 6.54235 5.80777ZM8.86119 5.80777C9.18135 5.80777 9.4409 6.06669 9.4409 6.38608C9.4409 6.70548 9.18135 6.9644 8.86119 6.9644C8.54102 6.9644 8.28148 6.70548 8.28148 6.38608C8.28148 6.06669 8.54102 5.80777 8.86119 5.80777ZM10.0206 4.65114C10.3408 4.65114 10.6003 4.91006 10.6003 5.22946C10.6003 5.54885 10.3408 5.80777 10.0206 5.80777C9.70044 5.80777 9.4409 5.54885 9.4409 5.22946C9.4409 4.91006 9.70044 4.65114 10.0206 4.65114ZM7.70177 4.65114C8.02193 4.65114 8.28148 4.91006 8.28148 5.22946C8.28148 5.54885 8.02193 5.80777 7.70177 5.80777C7.3816 5.80777 7.12206 5.54885 7.12206 5.22946C7.12206 4.91006 7.3816 4.65114 7.70177 4.65114ZM5.38293 4.65114C5.70309 4.65114 5.96264 4.91006 5.96264 5.22946C5.96264 5.54885 5.70309 5.80777 5.38293 5.80777C5.06276 5.80777 4.80322 5.54885 4.80322 5.22946C4.80322 4.91006 5.06276 4.65114 5.38293 4.65114ZM3.06409 4.65114C3.38425 4.65114 3.6438 4.91006 3.6438 5.22946C3.6438 5.54885 3.38425 5.80777 3.06409 5.80777C2.74392 5.80777 2.48438 5.54885 2.48438 5.22946C2.48438 4.91006 2.74392 4.65114 3.06409 4.65114ZM4.22351 3.49452C4.54367 3.49452 4.80322 3.75344 4.80322 4.07283C4.80322 4.39222 4.54367 4.65114 4.22351 4.65114C3.90334 4.65114 3.6438 4.39222 3.6438 4.07283C3.6438 3.75344 3.90334 3.49452 4.22351 3.49452ZM6.54235 3.49452C6.86251 3.49452 7.12206 3.75344 7.12206 4.07283C7.12206 4.39222 6.86251 4.65114 6.54235 4.65114C6.22218 4.65114 5.96264 4.39222 5.96264 4.07283C5.96264 3.75344 6.22218 3.49452 6.54235 3.49452ZM8.86119 3.49452C9.18135 3.49452 9.4409 3.75344 9.4409 4.07283C9.4409 4.39222 9.18135 4.65114 8.86119 4.65114C8.54102 4.65114 8.28148 4.39222 8.28148 4.07283C8.28148 3.75344 8.54102 3.49452 8.86119 3.49452ZM3.06409 2.33789C3.38425 2.33789 3.6438 2.59681 3.6438 2.9162C3.6438 3.2356 3.38425 3.49452 3.06409 3.49452C2.74392 3.49452 2.48438 3.2356 2.48438 2.9162C2.48438 2.59681 2.74392 2.33789 3.06409 2.33789ZM5.38293 2.33789C5.70309 2.33789 5.96264 2.59681 5.96264 2.9162C5.96264 3.2356 5.70309 3.49452 5.38293 3.49452C5.06276 3.49452 4.80322 3.2356 4.80322 2.9162C4.80322 2.59681 5.06276 2.33789 5.38293 2.33789ZM7.70177 2.33789C8.02193 2.33789 8.28148 2.59681 8.28148 2.9162C8.28148 3.2356 8.02193 3.49452 7.70177 3.49452C7.3816 3.49452 7.12206 3.2356 7.12206 2.9162C7.12206 2.59681 7.3816 2.33789 7.70177 2.33789ZM10.0206 2.33789C10.3408 2.33789 10.6003 2.59681 10.6003 2.9162C10.6003 3.2356 10.3408 3.49452 10.0206 3.49452C9.70044 3.49452 9.4409 3.2356 9.4409 2.9162C9.4409 2.59681 9.70044 2.33789 10.0206 2.33789Z" fill="url(#paint0_linear_7042_5190)"></path><path d="M26 1H1V19H26V1Z" stroke="#E6E6E6"></path><defs><linearGradient id="paint0_linear_7042_5190" x1="13.4991" y1="1.18115" x2="13.4991" y2="18.5306" gradientUnits="userSpaceOnUse"><stop stop-color="white"></stop><stop offset="1" stop-color="#F0F0F0"></stop></linearGradient></defs></svg>