<svg xmlns="http://www.w3.org/2000/svg" viewBox="0 0 20 20"><g fill="none" fill-rule="evenodd"><path fill="currentColor" fill-rule="nonzero" d="M1.807,9.334 C1.79833333,9.37733333 1.794,9.42933333 1.794,9.49 C1.794,9.698 1.86766667,9.802 2.015,9.802 C2.093,9.802 2.17966667,9.776 2.275,9.724 C2.37033333,9.672 2.49166667,9.58533333 2.639,9.464 L2.808,9.867 C2.66066667,10.0663333 2.44183333,10.2656667 2.1515,10.465 C1.86116667,10.6643333 1.508,10.764 1.092,10.764 C0.754,10.764 0.489666667,10.6968333 0.299,10.5625 C0.108333333,10.4281667 0.013,10.244 0.013,10.01 L0.026,9.88 C0.078,9.42933333 0.255666667,8.12066667 0.559,5.954 L0.767,4.446 L0,4.082 L0.091,3.575 L2.327,3.263 L2.639,3.406 L1.807,9.334 Z M1.95,2.015 C1.716,2.015 1.5145,1.92616667 1.3455,1.7485 C1.1765,1.57083333 1.092,1.365 1.092,1.131 C1.092,0.810333333 1.19816667,0.541666667 1.4105,0.325 C1.62283333,0.108333333 1.89366667,-2.84217094e-14 2.223,-2.84217094e-14 C2.49166667,-2.84217094e-14 2.704,0.0845 2.86,0.2535 C3.016,0.4225 3.094,0.624 3.094,0.858 C3.094,1.18733333 2.99433333,1.4625 2.795,1.6835 C2.59566667,1.9045 2.314,2.015 1.95,2.015 Z" transform="translate(8.338 4.366)"></path><circle cx="10" cy="10" r="9.5" stroke="currentColor" opacity=".403"></circle></g></svg>