<svg xmlns="http://www.w3.org/2000/svg" viewBox="0 0 18 18"><path fill="currentColor" fill-rule="evenodd" d="M17 0c.55000305 0 1 .4499998 1 1 0 9.39000034-7.61000061 17-17 17-.55000305 0-1-.45000076-1-1v-3.48999977c0-.55000115.44999695-1 1-1 1.2400055 0 2.44999695-.19999886 3.57000732-.57000065.09999085-.03999996.20999146-.04999924.30999756-.04999924.25999451 0 .50999451.09999943.70999146.28999997l2.19999695 2.20000076c2.83000183-1.45000076 5.15000915-3.76000118 6.5900116-6.5900011l-2.20001221-2.19999982c-.27999878-.28000068-.35998536-.67000007-.25-1.02000046C12.30000305 3.44999981 12.5 2.25 12.5 1c0-.5500002.44999695-1 1-1H17zm-3 4.73350906C14.24490356 3.85751963 14.39796448 2.9393139 14.45918274 2H16c-.09184265 1.39313984-.35714722 2.73350906-.7755127 4L14 4.73350906zM2 14.46391678V16c1.3894806-.09278297 2.72631836-.36082458 4-.77319527L4.73684692 14c-.89474487.24742317-1.81053161.40206146-2.73684692.46391678z"></path></svg>