<svg xmlns="http://www.w3.org/2000/svg" viewBox="0 0 17 17"><path fill="currentColor" fill-rule="evenodd" d="M1.70507813 16.84768677c-.20410157.20308304-.53320313.20308304-.73620606 0l-.81652832-.81650925c-.203125-.20308304-.203125-.5321846 0-.73631287l4.58117676-4.58952331C3.72741699 9.30457306 3.2401123 7.51221848 3.55773926 5.6136322 4.04199219 2.7162857 6.46228027.4084053 9.3774414.05222702c4.4074707-.53843689 8.10876464 3.1629181 7.5703125 7.57038498-.35620118 2.91609573-2.6640625 5.33541107-5.56140137 5.8196907-1.89855957.31764603-3.69091797-.16975784-5.0916748-1.17581176l-4.58959962 4.58119583zM9.4909668 11.3999977c3.17333984.4811554 5.85083007-2.19748688 5.36975097-5.36977768-.29992675-1.9756546-1.9152832-3.59096145-3.89086914-3.89090347-3.17236328-.4811554-5.85095215 2.19644165-5.36987304 5.36977768.29992675 1.9756546 1.9152832 3.59096145 3.8909912 3.89090347z"></path></svg>